<mxfile host="app.diagrams.net" agent="Mozilla/5.0 (Windows NT 10.0; Win64; x64) AppleWebKit/537.36 (KHTML, like Gecko) Chrome/136.0.0.0 Safari/537.36" version="27.0.2">
  <diagram name="FizzBuzz" id="mRIKIxxXb86oZaP6D3W_">
    <mxGraphModel dx="1426" dy="785" grid="1" gridSize="10" guides="1" tooltips="1" connect="1" arrows="1" fold="1" page="1" pageScale="1" pageWidth="850" pageHeight="1100" math="0" shadow="0">
      <root>
        <mxCell id="0" />
        <mxCell id="1" parent="0" />
        <mxCell id="XidhMjpW73RZRRt6eJGl-1" value="Start" style="strokeWidth=2;html=1;shape=mxgraph.flowchart.start_2;whiteSpace=wrap;" vertex="1" parent="1">
          <mxGeometry x="80" y="40" width="100" height="100" as="geometry" />
        </mxCell>
        <mxCell id="XidhMjpW73RZRRt6eJGl-2" value="for $x in range&lt;div&gt;from 1 to 25&lt;/div&gt;" style="strokeWidth=2;html=1;shape=mxgraph.flowchart.decision;whiteSpace=wrap;" vertex="1" parent="1">
          <mxGeometry x="280" y="40" width="100" height="100" as="geometry" />
        </mxCell>
        <mxCell id="XidhMjpW73RZRRt6eJGl-17" style="edgeStyle=orthogonalEdgeStyle;rounded=0;orthogonalLoop=1;jettySize=auto;html=1;" edge="1" parent="1" source="XidhMjpW73RZRRt6eJGl-3" target="XidhMjpW73RZRRt6eJGl-6">
          <mxGeometry relative="1" as="geometry" />
        </mxCell>
        <mxCell id="XidhMjpW73RZRRt6eJGl-33" value="True" style="edgeLabel;html=1;align=center;verticalAlign=middle;resizable=0;points=[];" vertex="1" connectable="0" parent="XidhMjpW73RZRRt6eJGl-17">
          <mxGeometry x="-0.1111" y="1" relative="1" as="geometry">
            <mxPoint as="offset" />
          </mxGeometry>
        </mxCell>
        <mxCell id="XidhMjpW73RZRRt6eJGl-25" style="edgeStyle=orthogonalEdgeStyle;rounded=0;orthogonalLoop=1;jettySize=auto;html=1;entryX=1;entryY=0.75;entryDx=0;entryDy=0;exitX=0.79;exitY=0.31;exitDx=0;exitDy=0;exitPerimeter=0;" edge="1" parent="1" source="XidhMjpW73RZRRt6eJGl-3" target="XidhMjpW73RZRRt6eJGl-9">
          <mxGeometry relative="1" as="geometry">
            <Array as="points">
              <mxPoint x="454" y="220" />
              <mxPoint x="700" y="220" />
              <mxPoint x="700" y="643" />
            </Array>
          </mxGeometry>
        </mxCell>
        <mxCell id="XidhMjpW73RZRRt6eJGl-36" value="False" style="edgeLabel;html=1;align=center;verticalAlign=middle;resizable=0;points=[];" vertex="1" connectable="0" parent="XidhMjpW73RZRRt6eJGl-25">
          <mxGeometry x="-0.6569" y="-1" relative="1" as="geometry">
            <mxPoint as="offset" />
          </mxGeometry>
        </mxCell>
        <mxCell id="XidhMjpW73RZRRt6eJGl-3" value="if x is multiple&lt;div&gt;of 3&lt;/div&gt;" style="strokeWidth=2;html=1;shape=mxgraph.flowchart.decision;whiteSpace=wrap;" vertex="1" parent="1">
          <mxGeometry x="375" y="210" width="100" height="100" as="geometry" />
        </mxCell>
        <mxCell id="XidhMjpW73RZRRt6eJGl-18" style="edgeStyle=orthogonalEdgeStyle;rounded=0;orthogonalLoop=1;jettySize=auto;html=1;entryX=0;entryY=0.5;entryDx=0;entryDy=0;" edge="1" parent="1" source="XidhMjpW73RZRRt6eJGl-4" target="XidhMjpW73RZRRt6eJGl-7">
          <mxGeometry relative="1" as="geometry" />
        </mxCell>
        <mxCell id="XidhMjpW73RZRRt6eJGl-34" value="True" style="edgeLabel;html=1;align=center;verticalAlign=middle;resizable=0;points=[];" vertex="1" connectable="0" parent="XidhMjpW73RZRRt6eJGl-18">
          <mxGeometry x="-0.1556" y="1" relative="1" as="geometry">
            <mxPoint as="offset" />
          </mxGeometry>
        </mxCell>
        <mxCell id="XidhMjpW73RZRRt6eJGl-26" style="edgeStyle=orthogonalEdgeStyle;rounded=0;orthogonalLoop=1;jettySize=auto;html=1;entryX=1;entryY=0.75;entryDx=0;entryDy=0;exitX=0.77;exitY=0.31;exitDx=0;exitDy=0;exitPerimeter=0;" edge="1" parent="1" source="XidhMjpW73RZRRt6eJGl-4" target="XidhMjpW73RZRRt6eJGl-9">
          <mxGeometry relative="1" as="geometry">
            <Array as="points">
              <mxPoint x="452" y="350" />
              <mxPoint x="700" y="350" />
              <mxPoint x="700" y="643" />
            </Array>
          </mxGeometry>
        </mxCell>
        <mxCell id="XidhMjpW73RZRRt6eJGl-37" value="False" style="edgeLabel;html=1;align=center;verticalAlign=middle;resizable=0;points=[];" vertex="1" connectable="0" parent="XidhMjpW73RZRRt6eJGl-26">
          <mxGeometry x="-0.5853" relative="1" as="geometry">
            <mxPoint as="offset" />
          </mxGeometry>
        </mxCell>
        <mxCell id="XidhMjpW73RZRRt6eJGl-4" value="if x is multiple&lt;div&gt;of 5&lt;/div&gt;" style="strokeWidth=2;html=1;shape=mxgraph.flowchart.decision;whiteSpace=wrap;" vertex="1" parent="1">
          <mxGeometry x="375" y="340" width="100" height="100" as="geometry" />
        </mxCell>
        <mxCell id="XidhMjpW73RZRRt6eJGl-19" style="edgeStyle=orthogonalEdgeStyle;rounded=0;orthogonalLoop=1;jettySize=auto;html=1;entryX=0;entryY=0.5;entryDx=0;entryDy=0;" edge="1" parent="1" source="XidhMjpW73RZRRt6eJGl-5" target="XidhMjpW73RZRRt6eJGl-8">
          <mxGeometry relative="1" as="geometry" />
        </mxCell>
        <mxCell id="XidhMjpW73RZRRt6eJGl-35" value="True" style="edgeLabel;html=1;align=center;verticalAlign=middle;resizable=0;points=[];" vertex="1" connectable="0" parent="XidhMjpW73RZRRt6eJGl-19">
          <mxGeometry x="-0.1556" y="1" relative="1" as="geometry">
            <mxPoint as="offset" />
          </mxGeometry>
        </mxCell>
        <mxCell id="XidhMjpW73RZRRt6eJGl-28" style="edgeStyle=orthogonalEdgeStyle;rounded=0;orthogonalLoop=1;jettySize=auto;html=1;entryX=1;entryY=0.75;entryDx=0;entryDy=0;exitX=0.77;exitY=0.25;exitDx=0;exitDy=0;exitPerimeter=0;" edge="1" parent="1" source="XidhMjpW73RZRRt6eJGl-5" target="XidhMjpW73RZRRt6eJGl-9">
          <mxGeometry relative="1" as="geometry">
            <Array as="points">
              <mxPoint x="452" y="480" />
              <mxPoint x="700" y="480" />
              <mxPoint x="700" y="643" />
            </Array>
          </mxGeometry>
        </mxCell>
        <mxCell id="XidhMjpW73RZRRt6eJGl-38" value="False" style="edgeLabel;html=1;align=center;verticalAlign=middle;resizable=0;points=[];" vertex="1" connectable="0" parent="XidhMjpW73RZRRt6eJGl-28">
          <mxGeometry x="-0.4857" relative="1" as="geometry">
            <mxPoint as="offset" />
          </mxGeometry>
        </mxCell>
        <mxCell id="XidhMjpW73RZRRt6eJGl-5" value="if x is multiple&lt;div&gt;of x and 5&lt;/div&gt;" style="strokeWidth=2;html=1;shape=mxgraph.flowchart.decision;whiteSpace=wrap;" vertex="1" parent="1">
          <mxGeometry x="375" y="470" width="100" height="100" as="geometry" />
        </mxCell>
        <mxCell id="XidhMjpW73RZRRt6eJGl-24" style="edgeStyle=orthogonalEdgeStyle;rounded=0;orthogonalLoop=1;jettySize=auto;html=1;entryX=1;entryY=0.75;entryDx=0;entryDy=0;" edge="1" parent="1" source="XidhMjpW73RZRRt6eJGl-6" target="XidhMjpW73RZRRt6eJGl-9">
          <mxGeometry relative="1" as="geometry">
            <Array as="points">
              <mxPoint x="660" y="260" />
              <mxPoint x="660" y="643" />
            </Array>
          </mxGeometry>
        </mxCell>
        <mxCell id="XidhMjpW73RZRRt6eJGl-6" value="x = Fizz" style="rounded=1;whiteSpace=wrap;html=1;absoluteArcSize=1;arcSize=14;strokeWidth=2;" vertex="1" parent="1">
          <mxGeometry x="520" y="245" width="100" height="30" as="geometry" />
        </mxCell>
        <mxCell id="XidhMjpW73RZRRt6eJGl-23" style="edgeStyle=orthogonalEdgeStyle;rounded=0;orthogonalLoop=1;jettySize=auto;html=1;entryX=1;entryY=0.75;entryDx=0;entryDy=0;" edge="1" parent="1" source="XidhMjpW73RZRRt6eJGl-7" target="XidhMjpW73RZRRt6eJGl-9">
          <mxGeometry relative="1" as="geometry">
            <Array as="points">
              <mxPoint x="660" y="390" />
              <mxPoint x="660" y="643" />
            </Array>
          </mxGeometry>
        </mxCell>
        <mxCell id="XidhMjpW73RZRRt6eJGl-7" value="x = Buzz" style="rounded=1;whiteSpace=wrap;html=1;absoluteArcSize=1;arcSize=14;strokeWidth=2;" vertex="1" parent="1">
          <mxGeometry x="520" y="375" width="100" height="30" as="geometry" />
        </mxCell>
        <mxCell id="XidhMjpW73RZRRt6eJGl-20" style="edgeStyle=orthogonalEdgeStyle;rounded=0;orthogonalLoop=1;jettySize=auto;html=1;entryX=1;entryY=0.75;entryDx=0;entryDy=0;" edge="1" parent="1" source="XidhMjpW73RZRRt6eJGl-8" target="XidhMjpW73RZRRt6eJGl-9">
          <mxGeometry relative="1" as="geometry">
            <Array as="points">
              <mxPoint x="660" y="520" />
              <mxPoint x="660" y="643" />
            </Array>
          </mxGeometry>
        </mxCell>
        <mxCell id="XidhMjpW73RZRRt6eJGl-8" value="x = FizzBuzz" style="rounded=1;whiteSpace=wrap;html=1;absoluteArcSize=1;arcSize=14;strokeWidth=2;" vertex="1" parent="1">
          <mxGeometry x="520" y="505" width="100" height="30" as="geometry" />
        </mxCell>
        <mxCell id="XidhMjpW73RZRRt6eJGl-29" style="edgeStyle=orthogonalEdgeStyle;rounded=0;orthogonalLoop=1;jettySize=auto;html=1;entryX=0.5;entryY=1;entryDx=0;entryDy=0;" edge="1" parent="1" source="XidhMjpW73RZRRt6eJGl-9" target="XidhMjpW73RZRRt6eJGl-10">
          <mxGeometry relative="1" as="geometry" />
        </mxCell>
        <mxCell id="XidhMjpW73RZRRt6eJGl-9" value="x = x" style="rounded=1;whiteSpace=wrap;html=1;absoluteArcSize=1;arcSize=14;strokeWidth=2;" vertex="1" parent="1">
          <mxGeometry x="520" y="620" width="100" height="30" as="geometry" />
        </mxCell>
        <mxCell id="XidhMjpW73RZRRt6eJGl-10" value="Range finshed" style="rounded=1;whiteSpace=wrap;html=1;absoluteArcSize=1;arcSize=14;strokeWidth=2;" vertex="1" parent="1">
          <mxGeometry x="80" y="372.5" width="100" height="35" as="geometry" />
        </mxCell>
        <mxCell id="XidhMjpW73RZRRt6eJGl-11" value="Display range" style="strokeWidth=2;html=1;shape=mxgraph.flowchart.display;whiteSpace=wrap;" vertex="1" parent="1">
          <mxGeometry x="520" y="60" width="100" height="60" as="geometry" />
        </mxCell>
        <mxCell id="XidhMjpW73RZRRt6eJGl-12" value="End" style="strokeWidth=2;html=1;shape=mxgraph.flowchart.terminator;whiteSpace=wrap;" vertex="1" parent="1">
          <mxGeometry x="690" y="60" width="100" height="60" as="geometry" />
        </mxCell>
        <mxCell id="XidhMjpW73RZRRt6eJGl-13" style="edgeStyle=orthogonalEdgeStyle;rounded=0;orthogonalLoop=1;jettySize=auto;html=1;entryX=0;entryY=0.5;entryDx=0;entryDy=0;entryPerimeter=0;" edge="1" parent="1" source="XidhMjpW73RZRRt6eJGl-1" target="XidhMjpW73RZRRt6eJGl-2">
          <mxGeometry relative="1" as="geometry" />
        </mxCell>
        <mxCell id="XidhMjpW73RZRRt6eJGl-14" style="edgeStyle=orthogonalEdgeStyle;rounded=0;orthogonalLoop=1;jettySize=auto;html=1;entryX=0;entryY=0.5;entryDx=0;entryDy=0;entryPerimeter=0;" edge="1" parent="1" source="XidhMjpW73RZRRt6eJGl-2" target="XidhMjpW73RZRRt6eJGl-5">
          <mxGeometry relative="1" as="geometry" />
        </mxCell>
        <mxCell id="XidhMjpW73RZRRt6eJGl-15" style="edgeStyle=orthogonalEdgeStyle;rounded=0;orthogonalLoop=1;jettySize=auto;html=1;entryX=0;entryY=0.5;entryDx=0;entryDy=0;entryPerimeter=0;" edge="1" parent="1" source="XidhMjpW73RZRRt6eJGl-2" target="XidhMjpW73RZRRt6eJGl-4">
          <mxGeometry relative="1" as="geometry" />
        </mxCell>
        <mxCell id="XidhMjpW73RZRRt6eJGl-16" style="edgeStyle=orthogonalEdgeStyle;rounded=0;orthogonalLoop=1;jettySize=auto;html=1;entryX=0;entryY=0.5;entryDx=0;entryDy=0;entryPerimeter=0;" edge="1" parent="1" source="XidhMjpW73RZRRt6eJGl-2" target="XidhMjpW73RZRRt6eJGl-3">
          <mxGeometry relative="1" as="geometry" />
        </mxCell>
        <mxCell id="XidhMjpW73RZRRt6eJGl-30" style="edgeStyle=orthogonalEdgeStyle;rounded=0;orthogonalLoop=1;jettySize=auto;html=1;entryX=0.19;entryY=0.74;entryDx=0;entryDy=0;entryPerimeter=0;" edge="1" parent="1" source="XidhMjpW73RZRRt6eJGl-10" target="XidhMjpW73RZRRt6eJGl-2">
          <mxGeometry relative="1" as="geometry" />
        </mxCell>
        <mxCell id="XidhMjpW73RZRRt6eJGl-31" style="edgeStyle=orthogonalEdgeStyle;rounded=0;orthogonalLoop=1;jettySize=auto;html=1;entryX=0;entryY=0.5;entryDx=0;entryDy=0;entryPerimeter=0;" edge="1" parent="1" source="XidhMjpW73RZRRt6eJGl-2" target="XidhMjpW73RZRRt6eJGl-11">
          <mxGeometry relative="1" as="geometry" />
        </mxCell>
        <mxCell id="XidhMjpW73RZRRt6eJGl-32" style="edgeStyle=orthogonalEdgeStyle;rounded=0;orthogonalLoop=1;jettySize=auto;html=1;entryX=0;entryY=0.5;entryDx=0;entryDy=0;entryPerimeter=0;" edge="1" parent="1" source="XidhMjpW73RZRRt6eJGl-11" target="XidhMjpW73RZRRt6eJGl-12">
          <mxGeometry relative="1" as="geometry" />
        </mxCell>
      </root>
    </mxGraphModel>
  </diagram>
</mxfile>
